Coordinates
version=1
nRows=4
nColumns=107
inDegrees=yes

Units are S.I. units (second, meters, Newtons, ...)
If the header above contains a line with 'inDegrees', this indicates whether rotational values are in degrees (yes) or radians (no).

endheader
time	sternoclavicular_r2	sternoclavicular_r3	unrotscap_r3	unrotscap_r2	acromioclavicular_r2	acromioclavicular_r3	acromioclavicular_r1	unrothum_r1	unrothum_r3	unrothum_r2	elv_angle	shoulder_elv	shoulder1_r2	shoulder_rot	elbow_flexion	pro_sup	deviation	flexion	proximal_distal_r1	proximal_distal_r3	cmc_flexion	cmc_abduction	mp_flexion	ip_flexion	mcp2_flexion	mcp2_abduction	pm2_flexion	md2_flexion	mcp3_flexion	mcp3_abduction	pm3_flexion	md3_flexion	mcp4_flexion	mcp4_abduction	pm4_flexion	md4_flexion	mcp5_flexion	mcp5_abduction	pm5_flexion	md5_flexion	bicpt_tx	bicpt_ty	bicpt_tz	bicpt2_tx	bicpt2_ty	bicpt2_tz	ptpt_tx	ptpt_ty	ptpt_tz	FCUpt_tx	FCUpt_ty	FCUpt_tz	EDCpt_tx	EDCpt_ty	EDCpt_tz	APLpt_tx	APLpt_ty	APLpt_tz	FPLpt_tx	FPLpt_ty	FPLpt_tz	FPLpt2_tx	FPLpt2_ty	FPLpt2_tz	PEC1pt2_tx	PEC1pt2_ty	PEC1pt2_tz	PEC1pt3_tx	PEC1pt3_ty	PEC1pt3_tz	PEC2pt2_tx	PEC2pt2_ty	PEC2pt2_tz	PEC2pt3_tx	PEC2pt3_ty	PEC2pt3_tz	PEC3pt2_tx	PEC3pt2_ty	PEC3pt2_tz	PEC3pt3_tx	PEC3pt3_ty	PEC3pt3_tz	DELT2pt2a_tx	DELT2pt2a_ty	DELT2pt2a_tz	DELT2pt2_tx	DELT2pt2_ty	DELT2pt2_tz	LAT1pt2_tx	LAT1pt2_ty	LAT1pt2_tz	LAT1pt3_tx	LAT1pt3_ty	LAT1pt3_tz	LAT2pt2_tx	LAT2pt2_ty	LAT2pt2_tz	LAT2pt3_tx	LAT2pt3_ty	LAT2pt3_tz	LAT3pt2_tx	LAT3pt2_ty	LAT3pt2_tz	LAT3pt3_tx	LAT3pt3_ty	LAT3pt3_tz
      1.26666667	     -0.33078298	      0.14010406	     -0.14010406	      0.33078298	     -0.06697682	      0.54128314	      0.24330305	     -0.24330305	     -0.54128314	      0.06697682	     97.07970264	     78.31581087	     -1.69436045	    -13.65289501	     29.76406088	     35.17078353	      0.04404398	     -0.89653945	      0.05818655	     -0.44826972	     17.22451981	    -12.65865114	    -24.16445145	     -0.56724499	     16.12079389	      8.56710429	     40.88662987	    -15.35869481	     29.96056615	      2.65681134	     17.02371232	     16.85334742	     31.89995449	     -5.48109940	     15.51157123	     22.70939212	     30.63054211	    -12.81965626	     26.88315778	      5.33625600	      0.00088450	     -0.03101142	     -0.00484949	      0.01653871	     -0.01828555	     -0.00796921	      0.00495128	     -0.06658038	     -0.00288320	      0.00729764	     -0.18359221	     -0.00034336	     -0.00422048	      0.00118739	      0.00017477	      0.00024416	      0.00009766	      0.00048832	      0.00031252	      0.00093757	      0.00052738	      0.00001862	     -0.00026579	     -0.00031895	      0.00256702	      0.00900633	      0.00626527	     -0.00839720	      0.02027511	     -0.01923090	      0.00256702	      0.00900633	      0.00626527	      0.00056561	      0.01879581	     -0.00987650	      0.00402844	      0.00500830	      0.01616103	      0.00000000	      0.00820587	      0.00000000	     -0.00735299	     -0.03398039	     -0.00676840	      0.00984423	     -0.00024548	     -0.00142854	     -0.00091369	      0.01531510	     -0.00626527	      0.00252351	      0.02210248	     -0.01827370	     -0.00613474	      0.01327019	     -0.00561264	     -0.01279159	      0.02801968	     -0.03136986	     -0.02401687	      0.01483651	     -0.00752703	     -0.01592423	      0.03237056	     -0.03920145
      1.30000000	     -0.33168649	      0.14048674	     -0.14048674	      0.33168649	     -0.06715977	      0.54276161	      0.24396761	     -0.24396761	     -0.54276161	      0.06715977	     96.97688421	     78.52972403	     -1.69256593	    -12.81936259	     29.78161243	     33.45412139	      0.00980405	     -0.90576807	      0.01322686	     -0.45288403	     20.25945906	    -13.69160711	    -23.89551597	     -0.24780713	     11.73513907	      8.80720037	     38.88966246	    -15.61746831	     25.88165913	      2.60049927	     14.84910676	     16.01931557	     27.56803815	     -4.87756277	     12.64642378	     21.66147751	     26.20372744	    -12.73769358	     24.07605194	      5.26763328	      0.00088508	     -0.03101343	     -0.00484981	      0.01651316	     -0.01829032	     -0.00813877	      0.00507812	     -0.06649836	     -0.00274491	      0.00712782	     -0.18362515	     -0.00032382	     -0.00401449	      0.00112058	      0.00018180	      0.00023967	      0.00009587	      0.00047934	      0.00030678	      0.00092033	      0.00051768	      0.00001119	     -0.00027846	     -0.00033416	      0.00257403	      0.00903093	      0.00628238	     -0.00842014	      0.02033049	     -0.01928343	      0.00257403	      0.00903093	      0.00628238	      0.00056716	      0.01884715	     -0.00990348	      0.00403636	      0.00502198	      0.01617968	      0.00000000	      0.00825110	      0.00000000	     -0.00737307	     -0.03407320	     -0.00680593	      0.00928783	     -0.00022234	     -0.00123519	     -0.00091618	      0.01535694	     -0.00628238	      0.00253040	      0.02216285	     -0.01832362	     -0.00615150	      0.01330644	     -0.00562797	     -0.01282653	      0.02809621	     -0.03145554	     -0.02408247	      0.01487703	     -0.00754759	     -0.01596772	      0.03245898	     -0.03930852
      1.33333333	     -0.33240673	      0.14079180	     -0.14079180	      0.33240673	     -0.06730560	      0.54394020	      0.24449738	     -0.24449738	     -0.54394020	      0.06730560	     96.91977439	     78.70024909	     -1.69156917	    -12.09186386	     29.73572207	     31.67871998	     -0.02441131	     -0.91466131	     -0.03361722	     -0.45733066	     23.26094302	    -14.67228014	    -23.10799887	      0.34553888	      7.38998892	      8.90988247	     37.01753652	    -15.79640609	     21.64848903	      2.61188422	     12.92688107	     15.24075224	     23.09094068	     -4.38097877	      9.82417614	     20.73478864	     21.68599936	    -12.67345297	     21.09155983	      5.21433694	      0.00088357	     -0.03100817	     -0.00484897	      0.01647966	     -0.01827785	     -0.00830980	      0.00520930	     -0.06641354	     -0.00260189	      0.00695315	     -0.18365834	     -0.00030128	     -0.00380144	      0.00105243	      0.00018740	      0.00023521	      0.00009408	      0.00047042	      0.00030107	      0.00090321	      0.00050805	      0.00000405	     -0.00028094	     -0.00033713	      0.00257962	      0.00905054	      0.00629603	     -0.00843842	      0.02037464	     -0.01932530	      0.00257962	      0.00905054	      0.00629603	      0.00056839	      0.01888808	     -0.00992498	      0.00404266	      0.00503289	      0.01619449	      0.00000000	      0.00828724	      0.00000000	     -0.00738909	     -0.03414719	     -0.00683591	      0.00879508	     -0.00020239	     -0.00107624	     -0.00091817	      0.01539028	     -0.00629603	      0.00253590	      0.02221098	     -0.01836341	     -0.00616486	      0.01333533	     -0.00564019	     -0.01285438	      0.02815722	     -0.03152385	     -0.02413476	      0.01490934	     -0.00756397	     -0.01600240	      0.03252946	     -0.03939388
      1.36666667	     -0.33312715	      0.14109694	     -0.14109694	      0.33312715	     -0.06745147	      0.54511907	      0.24502727	     -0.24502727	     -0.54511907	      0.06745147	     96.88582369	     78.87081410	     -1.69097662	    -11.41478967	     29.63415854	     30.10248577	     -0.05474980	     -0.92013340	     -0.07675664	     -0.46006670	     26.28550056	    -15.59502400	    -22.02207084	      1.01232643	      3.73221133	      9.56216273	     35.19691070	    -15.99254511	     17.81348619	      2.74938934	     11.31174096	     14.54240209	     18.86368865	     -3.55417699	      7.21134502	     19.92863645	     17.59044496	    -12.61487913	     18.25489455	      5.14208113	      0.00088021	     -0.03099653	     -0.00484709	      0.01644387	     -0.01825026	     -0.00845794	      0.00532577	     -0.06633823	     -0.00247492	      0.00679888	     -0.18368705	     -0.00027928	     -0.00361229	      0.00099274	      0.00019093	      0.00023240	      0.00009296	      0.00046480	      0.00029747	      0.00089242	      0.00050198	     -0.00000236	     -0.00027330	     -0.00032796	      0.00258521	      0.00907015	      0.00630967	     -0.00845671	      0.02041879	     -0.01936718	      0.00258521	      0.00907015	      0.00630967	      0.00056962	      0.01892901	     -0.00994649	      0.00404895	      0.00504380	      0.01620921	      0.00000000	      0.00832348	      0.00000000	     -0.00740510	     -0.03422120	     -0.00686598	      0.00832922	     -0.00018409	     -0.00093843	     -0.00092016	      0.01542364	     -0.00630967	      0.00254140	      0.02225912	     -0.01840321	     -0.00617822	      0.01336423	     -0.00565241	     -0.01288224	      0.02821825	     -0.03159217	     -0.02418707	      0.01494165	     -0.00758037	     -0.01603708	      0.03259996	     -0.03947926
